<svg width="61" height="39" viewBox="0 0 61 39" fill="none" xmlns="http://www.w3.org/2000/svg">
<path d="M33.3928 38.5827C12.6779 38.5827 0.862428 24.0997 0.370117 0H10.7465C11.0873 17.6886 18.7371 25.1811 24.7963 26.7259V0H34.5668V15.2554C40.5502 14.5988 46.8366 7.64702 48.9574 0H58.7278C57.9287 3.96596 56.3357 7.72109 54.0486 11.0305C51.7614 14.3399 48.8292 17.1325 45.4355 19.2334C49.2237 21.1531 52.5697 23.8703 55.2526 27.2056C57.9356 30.5409 59.8945 34.4186 61 38.5827H50.245C49.2525 34.9659 47.2354 31.7282 44.4464 29.2755C41.6574 26.8228 38.2206 25.2641 34.5668 24.7949V38.5827H33.3928V38.5827Z" fill="#151313"/>
</svg>
